<svg width="1283" height="442" viewBox="0 0 1283 442" fill="none" xmlns="http://www.w3.org/2000/svg">
<g clip-path="url(#clip0_20870_19159)">
<path d="M364.701 244.011L350.881 190.138C350.485 188.553 349.208 187.321 347.624 186.925L294.235 173.765C293.839 173.677 293.399 173.633 293.003 173.633C291.726 173.501 290.406 173.897 289.438 174.865L199.341 264.962L187.413 218.395C187.017 216.81 185.741 215.578 184.156 215.182L138.294 203.87L228.346 113.818C228.874 113.29 229.183 112.629 229.403 111.969C229.799 111.089 229.931 110.077 229.667 109.108L215.846 55.2353C215.45 53.6508 214.174 52.4184 212.589 52.0223L159.201 38.8621C158.144 38.598 157.088 38.7741 156.164 39.2142H156.12C155.855 39.3463 155.635 39.5223 155.371 39.6984C155.151 39.8744 154.843 39.9625 154.667 40.1825L0.970654 193.791C0.970654 193.791 0.706577 194.231 0.530522 194.451C-0.437784 195.596 -0.789898 197.092 -0.349759 198.545L14.5709 250.613C15.0111 252.109 16.1554 253.254 17.6079 253.65L67.6077 267.998L81.9562 317.954C82.3963 319.451 83.5407 320.595 84.9932 320.991L135.169 335.384L149.562 385.56C150.002 387.056 151.146 388.2 152.598 388.597L204.887 403.605C205.283 403.737 205.723 403.781 206.119 403.781C206.207 403.781 206.295 403.737 206.427 403.737C206.427 403.737 206.471 403.737 206.515 403.737C207.66 403.737 208.804 403.297 209.684 402.417L363.425 248.676C363.953 248.148 364.261 247.488 364.481 246.828C364.877 245.948 365.009 244.935 364.745 243.967L364.701 244.011ZM295.776 303.738L284.552 259.944L309.42 235.12L352.157 247.4L295.82 303.782L295.776 303.738ZM208.584 390.929L197.361 347.135L242.343 302.153L285.08 314.433L208.584 390.929ZM243.267 288.641L232.528 251.229L271.128 260.736L243.267 288.597V288.641ZM277.246 267.25L287.105 305.674L249.561 294.891L277.246 267.206V267.25ZM278.522 253.386L234.772 242.602L290.978 186.397L303.126 228.782L278.522 253.386ZM223.901 253.43L236.049 295.815L191.287 340.577L147.537 329.794L223.901 253.43ZM342.914 194.847L354.138 238.641L311.709 226.449L299.561 184.152L342.914 194.847ZM140.935 323.28L129.711 279.486L145.908 263.289L188.646 275.569L140.935 323.28ZM146.833 249.777L136.093 212.365L174.693 221.872L146.833 249.733V249.777ZM190.67 266.854L153.127 256.071L180.811 228.386L190.67 266.81V266.854ZM139.658 256.995L123.681 272.972L79.9315 262.189L127.511 214.61L139.658 256.995ZM89.3065 118.043L101.454 160.429L56.2961 205.587L12.5463 194.803L89.3065 118.043ZM155.988 51.3621L168.135 93.7474L143.928 117.955L100.178 107.172L155.988 51.3621ZM161.181 168.307L149.958 124.557L174.429 100.085L217.167 112.321L161.181 168.307ZM108.673 153.254L97.9332 115.842L136.533 125.349L108.673 153.21V153.254ZM142.651 131.863L152.51 170.288L115.011 159.504L142.695 131.819L142.651 131.863ZM107.792 166.723L150.53 178.958L73.6376 255.851L62.414 212.101L107.792 166.723ZM207.924 59.9008L219.147 103.695L176.718 91.5027L164.57 49.2054L207.924 59.9008ZM10.3456 203.474L48.9458 212.981L21.085 240.842L10.3456 203.43V203.474ZM27.379 247.18L55.0637 219.495L64.9228 257.919L27.423 247.136L27.379 247.18ZM89.8347 313.157L77.6869 270.859L121.041 281.555L132.264 325.349L89.8347 313.157ZM145.336 338.465L183.936 347.972L156.076 375.833L145.336 338.421V338.465ZM162.37 382.171L190.054 354.486L199.913 392.91L162.37 382.127V382.171Z" fill="#0A0A0D"/>
<path d="M496.001 309.239C481.872 309.239 469.592 306.422 459.029 300.788C448.51 295.155 440.323 287.496 434.557 277.725C428.748 267.998 425.887 256.775 425.887 244.099C425.887 231.423 428.704 220.199 434.337 210.472C439.971 200.745 447.718 193.042 457.621 187.409C467.524 181.775 478.791 178.958 491.511 178.958C504.231 178.958 514.883 181.687 524.566 187.145C534.249 192.602 541.819 200.261 547.365 210.076C552.911 219.891 555.684 231.555 555.684 245.023C555.684 246.123 555.684 247.532 555.552 249.204C555.464 250.877 555.376 252.329 555.199 253.606H449.434V233.887H539.531L527.647 240.049C527.823 232.919 526.326 226.537 523.245 220.903C520.164 215.269 515.895 210.912 510.525 207.831C505.156 204.75 498.774 203.21 491.511 203.21C484.249 203.21 477.999 204.75 472.365 207.831C466.732 210.912 462.418 215.313 459.425 221.035C456.432 226.757 454.892 233.315 454.892 240.753V245.507C454.892 253.121 456.608 259.855 459.997 265.709C463.387 271.563 468.272 276.141 474.61 279.354C480.948 282.611 488.298 284.239 496.705 284.239C503.835 284.239 510.261 283.051 515.939 280.674C521.661 278.297 526.722 274.82 531.168 270.199L547.321 288.729C541.467 295.375 534.205 300.48 525.578 303.957C516.951 307.435 507.092 309.195 496.001 309.195V309.239Z" fill="#0A0A0D"/>
<path d="M555.422 205.368V181.601H640.017V205.368H555.422ZM620.078 309.241C606.126 309.241 595.342 305.632 587.772 298.414C580.158 291.195 576.372 280.632 576.372 266.679V152.595H605.862V265.711C605.862 271.741 607.446 276.407 610.615 279.752C613.784 283.097 618.23 284.725 623.907 284.725C630.421 284.725 635.791 282.965 640.061 279.488L648.599 300.658C644.946 303.519 640.589 305.632 635.527 307.084C630.466 308.493 625.316 309.241 620.078 309.241Z" fill="#0A0A0D"/>
<path d="M730.824 179.002C741.123 179.002 750.19 180.983 758.024 184.944C765.859 188.906 772.109 195.023 776.818 203.254C781.484 211.485 783.816 222.048 783.816 234.856V307.567H754.107V238.641C754.107 227.374 751.51 219.011 746.273 213.465C741.035 207.92 733.597 205.147 723.914 205.147C716.959 205.147 710.753 206.555 705.384 209.416C700.014 212.277 695.833 216.502 692.928 222.136C689.979 227.77 688.526 234.856 688.526 243.395V307.567H659.037V131.203H688.526V215.094L682.364 204.398C686.634 196.3 693.016 190.05 701.511 185.604C710.005 181.159 719.776 178.958 730.868 178.958L730.824 179.002Z" fill="#0A0A0D"/>
<path d="M864.667 309.24C850.538 309.24 838.259 306.423 827.695 300.789C817.176 295.155 808.989 287.497 803.223 277.726C797.414 267.999 794.553 256.775 794.553 244.099C794.553 231.423 797.37 220.2 803.003 210.472C808.637 200.745 816.384 193.043 826.287 187.409C836.19 181.775 847.457 178.958 860.177 178.958C872.897 178.958 883.549 181.687 893.232 187.145C902.915 192.603 910.485 200.261 916.031 210.076C921.577 219.891 924.35 231.555 924.35 245.023C924.35 246.124 924.35 247.532 924.218 249.205C924.13 250.877 924.042 252.33 923.865 253.606H818.1V233.888H908.197L896.313 240.05C896.489 232.92 894.992 226.538 891.911 220.904C888.83 215.27 884.561 210.913 879.191 207.832C873.822 204.751 867.44 203.21 860.177 203.21C852.915 203.21 846.665 204.751 841.031 207.832C835.398 210.913 831.084 215.314 828.091 221.036C825.098 226.758 823.558 233.316 823.558 240.754V245.508C823.558 253.122 825.274 259.856 828.663 265.71C832.053 271.564 836.938 276.141 843.276 279.354C849.614 282.611 856.964 284.24 865.371 284.24C872.501 284.24 878.927 283.051 884.605 280.675C890.327 278.298 895.389 274.821 899.834 270.199L915.987 288.729C910.133 295.375 902.871 300.481 894.244 303.958C885.617 307.435 875.758 309.196 864.667 309.196V309.24Z" fill="#0A0A0D"/>
<path d="M937.591 307.565V180.629H965.892V215.576L962.547 205.365C966.2 196.826 972.142 190.268 980.372 185.778C988.603 181.245 998.682 179 1010.57 179V207.301C1009.47 207.125 1008.37 207.037 1007.22 206.949C1006.12 206.861 1005.06 206.817 1004.14 206.817C992.74 206.817 983.717 210.074 977.027 216.544C970.381 223.058 967.036 232.961 967.036 246.253V307.565H937.547H937.591Z" fill="#0A0A0D"/>
<path d="M1066.41 205.366V181.599H1151.01V205.366H1066.41ZM1087.32 307.567V173.764C1087.32 160.296 1091.24 149.557 1099.07 141.546C1106.91 133.536 1118.13 129.53 1132.7 129.53C1137.94 129.53 1142.87 130.102 1147.58 131.203C1152.24 132.303 1156.16 134.064 1159.33 136.44L1151.01 158.535C1148.94 157.127 1146.48 155.939 1143.66 154.97C1140.8 154.002 1137.89 153.562 1134.86 153.562C1128.69 153.562 1123.98 155.278 1120.82 158.668C1117.65 162.057 1116.06 167.118 1116.06 173.764V188.509L1116.77 201.581V307.567H1087.28H1087.32ZM1186.92 159.724C1181.38 159.724 1176.84 157.963 1173.28 154.486C1169.71 151.009 1167.95 146.74 1167.95 141.634C1167.95 136.881 1169.71 132.743 1173.28 129.266C1176.84 125.789 1181.38 124.029 1186.92 124.029C1192.47 124.029 1197 125.657 1200.61 128.914C1204.18 132.171 1205.94 136.308 1205.94 141.37C1205.94 146.432 1204.18 150.745 1200.7 154.31C1197.22 157.875 1192.6 159.68 1186.92 159.68V159.724ZM1172.18 307.567V180.63H1201.67V307.567H1172.18Z" fill="#0A0A0D"/>
<path d="M1045.88 302.68L1034.08 283.181C1033.2 281.773 1031.66 280.893 1030.03 280.893H1029.95C1028.27 280.893 1026.69 281.861 1025.85 283.357L1014.89 303.164C1013.4 305.893 1013.4 309.194 1014.89 311.923L1025.9 331.773C1026.73 333.269 1028.27 334.194 1029.99 334.238H1030.03C1031.71 334.238 1033.29 333.357 1034.13 331.905L1045.88 312.011C1047.6 309.15 1047.55 305.584 1045.88 302.724V302.68Z" fill="#0A0A0D"/>
</g>
<defs>
<clipPath id="clip0_20870_19159">
<rect width="1281.44" height="441.386" fill="white" transform="translate(0.769531)"/>
</clipPath>
</defs>
</svg>
